<svg width="41" height="53" viewBox="0 0 41 53" fill="none" xmlns="http://www.w3.org/2000/svg">
<path d="M9.6468 52.9442H13.5307C14.0366 52.9442 14.434 52.5467 14.434 52.0409V43.2071C14.434 39.9011 17.1077 37.2275 20.4135 37.2275C22.0033 37.2275 23.5027 37.8598 24.6408 38.9798C25.7608 40.1179 26.393 41.6173 26.393 43.2071V52.0409C26.393 52.5467 26.7905 52.9442 27.2963 52.9442H31.1803C36.4915 52.9442 40.827 48.6085 40.827 43.2974V19.1082C40.827 18.8554 40.7186 18.6025 40.538 18.4398L21.0278 0.790325C20.6845 0.48314 20.1426 0.48314 19.7994 0.790325L0.288998 18.4398C0.108387 18.6025 0 18.8554 0 19.1082V43.2974C0 48.6085 4.33566 52.9442 9.6468 52.9442Z" fill="#FE753F"/>
</svg>
